<svg width="36" height="36" viewBox="0 0 36 36" fill="none" xmlns="http://www.w3.org/2000/svg">
<g id="material-symbols:call">
<path id="Vector" d="M29.925 31.5C26.8 31.5 23.7125 30.819 20.6625 29.457C17.6125 28.095 14.8375 26.1635 12.3375 23.6625C9.8375 21.1625 7.9065 18.3875 6.5445 15.3375C5.1825 12.2875 4.501 9.2 4.5 6.075C4.5 5.625 4.65 5.25 4.95 4.95C5.25 4.65 5.625 4.5 6.075 4.5H12.15C12.5 4.5 12.8125 4.619 13.0875 4.857C13.3625 5.095 13.525 5.376 13.575 5.7L14.55 10.95C14.6 11.35 14.5875 11.6875 14.5125 11.9625C14.4375 12.2375 14.3 12.475 14.1 12.675L10.4625 16.35C10.9625 17.275 11.556 18.1685 12.243 19.0305C12.93 19.8925 13.6865 20.724 14.5125 21.525C15.2875 22.3 16.1 23.019 16.95 23.682C17.8 24.345 18.7 24.951 19.65 25.5L23.175 21.975C23.4 21.75 23.694 21.5815 24.057 21.4695C24.42 21.3575 24.776 21.326 25.125 21.375L30.3 22.425C30.65 22.525 30.9375 22.7065 31.1625 22.9695C31.3875 23.2325 31.5 23.526 31.5 23.85V29.925C31.5 30.375 31.35 30.75 31.05 31.05C30.75 31.35 30.375 31.5 29.925 31.5Z" fill="#2F2A2E"/>
</g>
</svg>
