<svg width="38" height="38" viewBox="0 0 38 38" fill="none" xmlns="http://www.w3.org/2000/svg">
<g id="mingcute:telegram-fill" clip-path="url(#clip0_50_249)">
<g id="Group">
<path id="Vector" fill-rule="evenodd" clip-rule="evenodd" d="M31.3136 7.01411C31.7049 6.84943 32.1331 6.79263 32.5538 6.84963C32.9745 6.90663 33.3722 7.07534 33.7055 7.3382C34.0389 7.60106 34.2957 7.94846 34.4492 8.34424C34.6027 8.74003 34.6473 9.16973 34.5784 9.58861L30.9874 31.3705C30.6391 33.4716 28.3338 34.6765 26.4069 33.6299C24.795 32.7544 22.401 31.4054 20.2477 29.9978C19.171 29.2932 15.8729 27.0369 16.2783 25.4314C16.6266 24.0587 22.1683 18.9002 25.3349 15.8333C26.5779 14.6284 26.011 13.9333 24.5433 15.0416C20.8984 17.7934 15.0464 21.9782 13.1116 23.1562C11.4048 24.1949 10.5149 24.3722 9.45094 24.1949C7.50977 23.8719 5.70952 23.3715 4.24019 22.7619C2.25469 21.9386 2.35127 19.2089 4.2386 18.4141L31.3136 7.01411Z" fill="#2F2A2E"/>
</g>
</g>
<defs>
<clipPath id="clip0_50_249">
<rect width="38" height="38" fill="white"/>
</clipPath>
</defs>
</svg>
