<svg width="36" height="36" viewBox="0 0 36 36" fill="none" xmlns="http://www.w3.org/2000/svg">
<g id="basil:vk-solid">
<path id="Vector" d="M32.256 27.5705H28.833C27.5385 27.5705 27.1485 26.522 24.828 24.2C22.8 22.2455 21.9435 22.0025 21.4305 22.0025C20.721 22.0025 20.5275 22.1975 20.5275 23.174V26.252C20.5275 27.0845 20.2575 27.572 18.0825 27.572C15.9724 27.4303 13.9262 26.7893 12.1125 25.7018C10.2987 24.6143 8.76919 23.1114 7.65 21.317C4.99258 18.0096 3.14356 14.1277 2.25 9.98004C2.25 9.46704 2.445 9.00204 3.423 9.00204H6.843C7.722 9.00204 8.0385 9.39354 8.3835 10.298C10.044 15.185 12.8775 19.436 14.028 19.436C14.469 19.436 14.661 19.241 14.661 18.1415V13.1075C14.5155 10.811 13.296 10.6175 13.296 9.78654C13.3114 9.5673 13.4117 9.36271 13.5756 9.21622C13.7394 9.06974 13.9539 8.9929 14.1735 9.00204H19.5495C20.2845 9.00204 20.5275 9.36804 20.5275 10.247V17.042C20.5275 17.7755 20.8425 18.0185 21.0645 18.0185C21.5055 18.0185 21.8445 17.7755 22.653 16.9685C24.386 14.855 25.8019 12.5003 26.856 9.97854C26.9639 9.67577 27.1679 9.4166 27.4368 9.24056C27.7057 9.06452 28.0248 8.98128 28.3455 9.00354H31.767C32.793 9.00354 33.0105 9.51654 32.793 10.2485C31.5486 13.0362 30.0088 15.6823 28.2 18.1415C27.831 18.704 27.684 18.9965 28.2 19.6565C28.539 20.1695 29.739 21.1715 30.5445 22.124C31.7175 23.294 32.691 24.647 33.4275 26.129C33.7215 27.083 33.2325 27.5705 32.256 27.5705Z" fill="#2F2A2E"/>
</g>
</svg>
