<svg width="40" height="40" viewBox="0 0 40 40" fill="none" xmlns="http://www.w3.org/2000/svg">
<g id="material-symbols:mail">
<path id="Vector" d="M6.66671 33.3327C5.75004 33.3327 4.9656 33.0066 4.31337 32.3543C3.66115 31.7021 3.33449 30.9171 3.33337 29.9993V9.99935C3.33337 9.08268 3.66004 8.29824 4.31337 7.64602C4.96671 6.99379 5.75115 6.66713 6.66671 6.66602H33.3334C34.25 6.66602 35.035 6.99268 35.6884 7.64602C36.3417 8.29935 36.6678 9.08379 36.6667 9.99935V29.9993C36.6667 30.916 36.3406 31.701 35.6884 32.3543C35.0362 33.0077 34.2512 33.3338 33.3334 33.3327H6.66671ZM20 21.666L33.3334 13.3327V9.99935L20 18.3327L6.66671 9.99935V13.3327L20 21.666Z" fill="#2F2A2E"/>
</g>
</svg>
