<svg width="44" height="44" viewBox="0 0 44 44" fill="none" xmlns="http://www.w3.org/2000/svg">
<g id="ic:baseline-whatsapp">
<path id="Vector" d="M34.925 9.00112C33.2442 7.30332 31.2421 5.95718 29.0356 5.04122C26.8291 4.12525 24.4623 3.6578 22.0733 3.66612C12.0633 3.66612 3.90497 11.8245 3.90497 21.8345C3.90497 25.0428 4.7483 28.1595 6.32497 30.9095L3.7583 40.3328L13.3833 37.8028C16.0416 39.2511 19.03 40.0211 22.0733 40.0211C32.0833 40.0211 40.2416 31.8628 40.2416 21.8528C40.2416 16.9945 38.3533 12.4295 34.925 9.00112ZM22.0733 36.9411C19.36 36.9411 16.7016 36.2078 14.3733 34.8328L13.8233 34.5028L8.1033 36.0061L9.62497 30.4328L9.2583 29.8645C7.75084 27.4572 6.95039 24.6747 6.9483 21.8345C6.9483 13.5111 13.7316 6.72779 22.055 6.72779C26.0883 6.72779 29.8833 8.30446 32.725 11.1645C34.132 12.5651 35.2471 14.231 36.0055 16.0657C36.764 17.9005 37.1507 19.8675 37.1433 21.8528C37.18 30.1761 30.3966 36.9411 22.0733 36.9411ZM30.36 25.6478C29.9016 25.4278 27.665 24.3278 27.2616 24.1628C26.84 24.0161 26.5466 23.9428 26.235 24.3828C25.9233 24.8411 25.0616 25.8678 24.805 26.1611C24.5483 26.4728 24.2733 26.5095 23.815 26.2711C23.3566 26.0511 21.89 25.5561 20.1666 24.0161C18.81 22.8061 17.9116 21.3211 17.6366 20.8628C17.38 20.4045 17.6 20.1661 17.8383 19.9278C18.04 19.7261 18.2966 19.3961 18.5166 19.1395C18.7366 18.8828 18.8283 18.6811 18.975 18.3878C19.1216 18.0761 19.0483 17.8195 18.9383 17.5995C18.8283 17.3795 17.9116 15.1428 17.545 14.2261C17.1783 13.3461 16.7933 13.4561 16.5183 13.4378H15.6383C15.3266 13.4378 14.85 13.5478 14.4283 14.0061C14.025 14.4645 12.8516 15.5645 12.8516 17.8011C12.8516 20.0378 14.4833 22.2011 14.7033 22.4945C14.9233 22.8061 17.9116 27.3895 22.4583 29.3511C23.54 29.8278 24.3833 30.1028 25.0433 30.3045C26.125 30.6528 27.115 30.5978 27.9033 30.4878C28.7833 30.3595 30.5983 29.3878 30.965 28.3245C31.35 27.2611 31.35 26.3628 31.2216 26.1611C31.0933 25.9595 30.8183 25.8678 30.36 25.6478Z" fill="#2F2A2E"/>
</g>
</svg>
