<svg width="218" height="87" viewBox="0 0 218 87" fill="none" xmlns="http://www.w3.org/2000/svg">
<path id="Vector 10" d="M18.5 87L29.1234 60.1583L0.566143 64.379L18.5 87ZM20.7791 56.4325C22.4418 49.6733 25.3583 43.7631 29.3177 38.5964L25.3491 35.5551C20.9778 41.2592 17.7545 47.796 15.9238 55.2381L20.7791 56.4325ZM44.1409 25.2116C49.5508 21.7136 55.6974 18.7592 62.4283 16.2951L60.7095 11.5998C53.6963 14.1672 47.2032 17.2773 41.426 21.0129L44.1409 25.2116ZM82.2363 10.7259C88.7833 9.35003 95.6285 8.30107 102.665 7.53898L102.127 2.56804C94.9492 3.3454 87.9386 4.41833 81.208 5.83277L82.2363 10.7259ZM123.376 6.10142C130.268 5.86736 137.231 5.85462 144.172 6.02771L144.297 1.02926C137.267 0.853961 130.206 0.866606 123.206 1.1043L123.376 6.10142ZM164.969 7.07896C172.036 7.60999 178.975 8.30265 185.681 9.11645L186.283 4.15287C179.505 3.33032 172.49 2.63003 165.344 2.09302L164.969 7.07896ZM206.323 12.1018C209.845 12.696 213.252 13.3159 216.521 13.9538L217.479 9.04626C214.166 8.4001 210.718 7.77255 207.154 7.17146L206.323 12.1018Z" fill="#3A2F39" fill-opacity="0.5"/>
</svg>
