<svg width="76" height="126" viewBox="0 0 76 126" fill="none" xmlns="http://www.w3.org/2000/svg">
<path id="Vector 14" d="M0.5 107L22.6089 125.562L27.6292 97.1339L0.5 107ZM30.7062 111.566C38.4423 110.625 45.0288 108.377 50.5779 105.058L48.0111 100.767C43.1219 103.692 37.217 105.737 30.1024 106.602L30.7062 111.566ZM65.4549 90.2061C69.0245 84.4282 71.4756 77.85 73.056 70.8789L68.1798 69.7733C66.693 76.3313 64.4201 82.3679 61.2012 87.578L65.4549 90.2061ZM75.4132 50.4986C75.5643 43.7108 75.1757 36.8354 74.4088 30.1463L69.4413 30.7158C70.1864 37.2146 70.5598 43.8601 70.4144 50.3873L75.4132 50.4986ZM70.9549 10.1226C70.1647 6.68725 69.3036 3.39636 68.3999 0.299641L63.6001 1.70036C64.4765 4.70335 65.3133 7.90087 66.0821 11.2434L70.9549 10.1226Z" fill="#3A2F39" fill-opacity="0.5"/>
</svg>
