<svg width="68" height="185" viewBox="0 0 68 185" fill="none" xmlns="http://www.w3.org/2000/svg">
<path id="Vector 12" d="M66.5 184.5L59.3367 156.535L38.7003 176.721L66.5 184.5ZM65.8522 0.085393C62.7504 0.917579 59.5722 1.91974 56.369 3.09675L58.0935 7.78995C61.1549 6.66505 64.19 5.70818 67.1478 4.91461L65.8522 0.085393ZM38.3947 11.6115C32.7413 14.9692 27.3034 18.9435 22.3985 23.5704L25.8294 27.2075C30.4346 22.8634 35.5698 19.1047 40.948 15.9104L38.3947 11.6115ZM9.75615 39.1834C6.40576 44.8055 3.81889 51.0336 2.26502 57.8863L7.14123 58.992C8.57315 52.6771 10.9559 46.9371 14.0513 41.743L9.75615 39.1834ZM0.778243 77.9328C1.18529 84.111 2.35405 90.6489 4.39348 97.5544L9.18873 96.1381C7.24539 89.5581 6.14829 83.3849 5.76743 77.6041L0.778243 77.9328ZM11.5811 116.035C14.2312 121.578 17.4031 127.327 21.1409 133.284L25.3763 130.627C21.7308 124.816 18.653 119.235 16.0922 113.878L11.5811 116.035ZM32.3143 149.448C36.0587 154.421 40.1779 159.527 44.6941 164.768L48.482 161.505C44.0323 156.34 39.9825 151.32 36.3086 146.441L32.3143 149.448Z" fill="#3A2F39" fill-opacity="0.5"/>
</svg>
