<svg width="66" height="182" viewBox="0 0 66 182" fill="none" xmlns="http://www.w3.org/2000/svg">
<path id="Vector 13" d="M1 182L8.0861 154.016L28.7782 174.145L1 182ZM1.65115 0.58629C4.69582 1.40766 7.81559 2.39727 10.9598 3.55993L9.22567 8.24958C6.22419 7.13969 3.24854 6.19597 0.348846 5.41371L1.65115 0.58629ZM28.5915 11.9696C34.1306 15.2837 39.4571 19.2065 44.2588 23.7736L40.8129 27.3965C36.3107 23.1143 31.2873 19.4091 26.0243 16.2603L28.5915 11.9696ZM56.6107 39.1617C59.876 44.6932 62.3944 50.819 63.9036 57.5571L59.0245 58.65C57.635 52.4465 55.3177 46.8072 52.3049 41.7034L56.6107 39.1617ZM65.3347 77.2458C64.9328 83.3138 63.7884 89.734 61.7956 96.5141L56.9985 95.1042C58.8963 88.6473 59.9698 82.5891 60.3456 76.9154L65.3347 77.2458ZM54.7708 114.672C52.1799 120.122 49.0792 125.773 45.4255 131.63L41.1833 128.984C44.7452 123.274 47.7526 117.789 50.2551 112.525L54.7708 114.672ZM34.4977 147.529C30.8345 152.421 26.8045 157.445 22.3861 162.602L18.5891 159.349C22.9413 154.269 26.9022 149.331 30.4953 144.532L34.4977 147.529Z" fill="#3A2F39" fill-opacity="0.5"/>
</svg>
