<svg width="77" height="107" viewBox="0 0 77 107" fill="none" xmlns="http://www.w3.org/2000/svg">
<path id="Vector 18" d="M2.28882e-05 90L26.245 77.9777L23.5341 106.718L2.28882e-05 90ZM61.1502 0.724627C62.6994 3.33642 64.2258 6.12666 65.683 9.04935L61.2083 11.2804C59.8058 8.46729 58.3376 5.78367 56.8498 3.27537L61.1502 0.724627ZM72.8629 26.64C74.8122 32.7876 76.2194 39.1421 76.7475 45.3874L71.7653 45.8088C71.2749 40.0099 69.9595 34.026 68.0967 28.1513L72.8629 26.64ZM74.9839 64.7674C73.0509 71.0004 69.6074 76.677 64.2383 81.3223L60.9668 77.5411C65.5728 73.556 68.5289 68.7017 70.2083 63.2864L74.9839 64.7674ZM46.9658 90.388C41.5345 92.0158 35.2736 93.0935 28.0989 93.5416L27.7872 88.5514C34.6504 88.1227 40.5259 87.0983 45.5304 85.5985L46.9658 90.388Z" fill="#3A2F39" fill-opacity="0.5"/>
</svg>
