<svg width="78" height="107" viewBox="0 0 78 107" fill="none" xmlns="http://www.w3.org/2000/svg">
<path id="Vector 17" d="M77.4771 90L51.2322 77.9777L53.9431 106.718L77.4771 90ZM16.3269 0.724627C14.7778 3.33642 13.2514 6.12666 11.7942 9.04935L16.2688 11.2804C17.6714 8.46729 19.1396 5.78367 20.6274 3.27537L16.3269 0.724627ZM4.61432 26.64C2.66496 32.7876 1.25781 39.1421 0.729636 45.3874L5.71185 45.8088C6.20227 40.0099 7.51762 34.026 9.38044 28.1513L4.61432 26.64ZM2.49328 64.7674C4.42624 71.0004 7.86976 76.677 13.2389 81.3223L16.5104 77.5411C11.9044 73.556 8.9483 68.7017 7.2689 63.2864L2.49328 64.7674ZM30.5114 90.388C35.9427 92.0158 42.2036 93.0935 49.3783 93.5416L49.69 88.5514C42.8267 88.1227 36.9512 87.0983 31.9468 85.5985L30.5114 90.388Z" fill="#3A2F39" fill-opacity="0.5"/>
</svg>
