<svg width="103" height="197" viewBox="0 0 103 197" fill="none" xmlns="http://www.w3.org/2000/svg">
<path id="Vector 19" d="M102.5 2.5L73.7083 0.408751L86.2931 26.3887L102.5 2.5ZM45.8657 192.406C43.003 190.539 40.2562 188.525 37.6377 186.377L34.4664 190.243C37.2259 192.506 40.1195 194.628 43.1343 196.594L45.8657 192.406ZM23.4353 171.809C19.261 166.433 15.7216 160.604 12.9182 154.427L8.36516 156.493C11.3339 163.035 15.0779 169.198 19.4858 174.876L23.4353 171.809ZM6.83947 135.077C5.63984 128.533 5.22087 121.754 5.67662 114.831L0.687421 114.503C0.204284 121.842 0.64828 129.034 1.92143 135.978L6.83947 135.077ZM9.40268 94.8595C11.32 88.6484 13.9746 82.3842 17.4344 76.1286L13.059 73.7087C9.43863 80.2546 6.64707 86.8348 4.62514 93.3846L9.40268 94.8595ZM28.9093 59.1467C32.9859 54.0802 37.6449 49.056 42.9239 44.1097L39.5052 40.461C34.0645 45.5588 29.2447 50.7539 25.0138 56.0123L28.9093 59.1467ZM58.7956 30.9073C64.0786 26.9837 69.8025 23.1349 75.9875 19.3806L73.393 15.1064C67.0821 18.9371 61.2286 22.8723 55.8144 26.8932L58.7956 30.9073Z" fill="#3A2F39" fill-opacity="0.5"/>
</svg>
