<svg width="51" height="159" viewBox="0 0 51 159" fill="none" xmlns="http://www.w3.org/2000/svg">
<path id="Vector 20" d="M0 159L28.8424 157.797L13.3791 133.42L0 159ZM24.0498 144.269C28.9462 139.644 33.0748 134.853 36.5081 129.939L32.4095 127.076C29.1812 131.696 25.2787 136.23 20.6165 140.634L24.0498 144.269ZM45.5025 113.098C47.8598 106.961 49.328 100.745 50.0497 94.5344L45.0831 93.9573C44.4074 99.7728 43.0348 105.578 40.835 111.305L45.5025 113.098ZM50.0643 75.4819C49.3803 69.1595 48.0567 62.9367 46.2556 56.9013L41.4644 58.3311C43.1887 64.1093 44.4456 70.0329 45.0934 76.0198L50.0643 75.4819ZM39.4959 39.2599C36.7747 33.4347 33.7027 27.8951 30.4566 22.7375L26.225 25.4009C29.37 30.3978 32.34 35.7551 34.9659 41.3761L39.4959 39.2599ZM19.5017 7.42355C17.4305 4.86809 15.3615 2.48623 13.3327 0.299597L9.66734 3.7004C11.6182 5.80301 13.6143 8.10047 15.6173 10.5718L19.5017 7.42355Z" fill="#3A2F39" fill-opacity="0.5"/>
</svg>
