<svg width="60" height="158" viewBox="0 0 60 158" fill="none" xmlns="http://www.w3.org/2000/svg">
<path id="Vector 9" d="M59.2705 150.495L31.1914 157.196L39.4279 129.528L59.2705 150.495ZM30.8572 142.183C24.3826 138.586 19.0648 134.547 14.7956 130.133L18.3894 126.657C22.2735 130.672 27.184 134.423 33.2851 137.812L30.8572 142.183ZM3.88224 113.026C1.4999 106.61 0.578324 99.8634 0.804792 92.9845L5.80208 93.149C5.59396 99.4708 6.44323 105.559 8.56961 111.286L3.88224 113.026ZM4.26426 73.2503C6.13805 67.0803 8.68582 60.9129 11.7092 54.8627L16.1818 57.0977C13.2612 62.9424 10.8269 68.8473 9.04849 74.7032L4.26426 73.2503ZM21.602 37.7936C25.2314 32.269 29.1415 26.9343 33.1661 21.8891L37.0748 25.0071C33.1359 29.9449 29.3176 35.1554 25.7809 40.5389L21.602 37.7936ZM46.0475 7.0508C48.3685 4.5906 50.673 2.25462 52.9312 0.0610949L56.415 3.64762C54.2096 5.78985 51.9562 8.07398 49.6845 10.4819L46.0475 7.0508Z" fill="white"/>
</svg>
