<svg width="174" height="71" viewBox="0 0 174 71" fill="none" xmlns="http://www.w3.org/2000/svg">
<path id="Vector 8" d="M2.23933 19.1185C0.924086 19.5387 0.198428 20.9454 0.618532 22.2607C1.03864 23.5759 2.44542 24.3016 3.76067 23.8815L2.23933 19.1185ZM150.5 70.5L173.824 53.491L147.432 41.796L150.5 70.5ZM3.76067 23.8815C6.98684 22.851 10.3428 21.8228 13.8038 20.8091L12.3983 16.0107C8.899 17.0357 5.50441 18.0757 2.23933 19.1185L3.76067 23.8815ZM34.1729 15.3494C40.901 13.7112 47.8124 12.1923 54.7663 10.8614L53.8264 5.95052C46.7844 7.29833 39.7918 8.83516 32.99 10.4913L34.1729 15.3494ZM75.5364 7.51076C82.6707 6.59183 89.6904 5.94815 96.4418 5.65317L96.2235 0.657938C89.3094 0.960025 82.1477 1.61788 74.8976 2.55173L75.5364 7.51076ZM117.279 6.01934C124.813 6.71017 131.582 8.07408 137.319 10.2207L139.071 5.53779C132.8 3.19148 125.568 1.75846 117.736 1.04023L117.279 6.01934ZM153.03 21.4996C156.279 26.2176 157.948 32.2852 157.398 40.1033L162.386 40.4543C163.002 31.6997 161.141 24.463 157.148 18.6638L153.03 21.4996Z" fill="white"/>
</svg>
